<mxfile host="app.diagrams.net" modified="2022-12-15T01:10:01.979Z" agent="5.0 (Macintosh; Intel Mac OS X 10_15_7) AppleWebKit/537.36 (KHTML, like Gecko) Chrome/107.0.0.0 Safari/537.36" etag="a3Ob2zg-FV7gPySpARTW" version="20.6.2" type="github">
  <diagram id="_gd1j9nPc-CfQd4HiOtH" name="第 1 页">
    <mxGraphModel dx="1298" dy="727" grid="1" gridSize="10" guides="1" tooltips="1" connect="1" arrows="1" fold="1" page="1" pageScale="1" pageWidth="827" pageHeight="1169" math="0" shadow="0">
      <root>
        <mxCell id="0" />
        <mxCell id="1" parent="0" />
        <mxCell id="m_yNfLJ8vxOP8ycgbfov-11" value="总业务流程" style="rounded=0;whiteSpace=wrap;html=1;align=left;verticalAlign=top;movable=1;resizable=1;rotatable=1;deletable=1;editable=1;connectable=1;" parent="1" vertex="1">
          <mxGeometry x="50" y="470" width="1020" height="520" as="geometry" />
        </mxCell>
        <mxCell id="m_yNfLJ8vxOP8ycgbfov-2" value="用户业务流" style="rounded=0;whiteSpace=wrap;html=1;align=left;verticalAlign=top;movable=0;resizable=0;rotatable=0;deletable=0;editable=0;connectable=0;" parent="1" vertex="1">
          <mxGeometry x="50" y="20" width="1020" height="400" as="geometry" />
        </mxCell>
        <mxCell id="m_yNfLJ8vxOP8ycgbfov-6" value="" style="edgeStyle=orthogonalEdgeStyle;rounded=0;orthogonalLoop=1;jettySize=auto;html=1;" parent="1" source="7Hse0OaDlXOEqtNHmnIK-1" target="m_yNfLJ8vxOP8ycgbfov-5" edge="1">
          <mxGeometry relative="1" as="geometry" />
        </mxCell>
        <mxCell id="7Hse0OaDlXOEqtNHmnIK-1" value="用户" style="rounded=1;whiteSpace=wrap;html=1;" parent="1" vertex="1">
          <mxGeometry x="140" y="80" width="120" height="60" as="geometry" />
        </mxCell>
        <mxCell id="m_yNfLJ8vxOP8ycgbfov-13" value="" style="edgeStyle=orthogonalEdgeStyle;rounded=0;orthogonalLoop=1;jettySize=auto;html=1;" parent="1" source="m_yNfLJ8vxOP8ycgbfov-1" target="m_yNfLJ8vxOP8ycgbfov-12" edge="1">
          <mxGeometry relative="1" as="geometry" />
        </mxCell>
        <mxCell id="m_yNfLJ8vxOP8ycgbfov-1" value="基础数据维护" style="rounded=1;whiteSpace=wrap;html=1;" parent="1" vertex="1">
          <mxGeometry x="100" y="570" width="120" height="60" as="geometry" />
        </mxCell>
        <mxCell id="m_yNfLJ8vxOP8ycgbfov-8" value="" style="edgeStyle=orthogonalEdgeStyle;rounded=0;orthogonalLoop=1;jettySize=auto;html=1;" parent="1" source="m_yNfLJ8vxOP8ycgbfov-5" target="m_yNfLJ8vxOP8ycgbfov-7" edge="1">
          <mxGeometry relative="1" as="geometry" />
        </mxCell>
        <mxCell id="m_yNfLJ8vxOP8ycgbfov-5" value="注册授权登录" style="rounded=1;whiteSpace=wrap;html=1;" parent="1" vertex="1">
          <mxGeometry x="340" y="80" width="120" height="60" as="geometry" />
        </mxCell>
        <mxCell id="m_yNfLJ8vxOP8ycgbfov-10" value="" style="edgeStyle=orthogonalEdgeStyle;rounded=0;orthogonalLoop=1;jettySize=auto;html=1;" parent="1" source="m_yNfLJ8vxOP8ycgbfov-7" target="m_yNfLJ8vxOP8ycgbfov-9" edge="1">
          <mxGeometry relative="1" as="geometry" />
        </mxCell>
        <mxCell id="m_yNfLJ8vxOP8ycgbfov-7" value="完善租房者真实姓名信息，系统自动核对。" style="rounded=1;whiteSpace=wrap;html=1;" parent="1" vertex="1">
          <mxGeometry x="540" y="80" width="120" height="60" as="geometry" />
        </mxCell>
        <mxCell id="m_yNfLJ8vxOP8ycgbfov-9" value="" style="whiteSpace=wrap;html=1;rounded=1;" parent="1" vertex="1">
          <mxGeometry x="740" y="80" width="120" height="60" as="geometry" />
        </mxCell>
        <mxCell id="m_yNfLJ8vxOP8ycgbfov-15" value="" style="edgeStyle=orthogonalEdgeStyle;rounded=0;orthogonalLoop=1;jettySize=auto;html=1;" parent="1" source="m_yNfLJ8vxOP8ycgbfov-12" target="m_yNfLJ8vxOP8ycgbfov-14" edge="1">
          <mxGeometry relative="1" as="geometry" />
        </mxCell>
        <mxCell id="m_yNfLJ8vxOP8ycgbfov-12" value="房源信息" style="whiteSpace=wrap;html=1;rounded=1;" parent="1" vertex="1">
          <mxGeometry x="300" y="570" width="120" height="60" as="geometry" />
        </mxCell>
        <mxCell id="m_yNfLJ8vxOP8ycgbfov-17" value="" style="edgeStyle=orthogonalEdgeStyle;rounded=0;orthogonalLoop=1;jettySize=auto;html=1;" parent="1" source="m_yNfLJ8vxOP8ycgbfov-14" target="m_yNfLJ8vxOP8ycgbfov-16" edge="1">
          <mxGeometry relative="1" as="geometry" />
        </mxCell>
        <mxCell id="m_yNfLJ8vxOP8ycgbfov-14" value="锁的维护" style="whiteSpace=wrap;html=1;rounded=1;" parent="1" vertex="1">
          <mxGeometry x="500" y="570" width="120" height="60" as="geometry" />
        </mxCell>
        <mxCell id="m_yNfLJ8vxOP8ycgbfov-19" value="" style="edgeStyle=orthogonalEdgeStyle;rounded=0;orthogonalLoop=1;jettySize=auto;html=1;" parent="1" source="m_yNfLJ8vxOP8ycgbfov-16" target="m_yNfLJ8vxOP8ycgbfov-18" edge="1">
          <mxGeometry relative="1" as="geometry" />
        </mxCell>
        <mxCell id="m_yNfLJ8vxOP8ycgbfov-16" value="客户信息登录（姓名，手机号码等）" style="whiteSpace=wrap;html=1;rounded=1;" parent="1" vertex="1">
          <mxGeometry x="700" y="570" width="120" height="60" as="geometry" />
        </mxCell>
        <mxCell id="m_yNfLJ8vxOP8ycgbfov-21" value="" style="edgeStyle=orthogonalEdgeStyle;rounded=0;orthogonalLoop=1;jettySize=auto;html=1;" parent="1" source="m_yNfLJ8vxOP8ycgbfov-18" target="m_yNfLJ8vxOP8ycgbfov-20" edge="1">
          <mxGeometry relative="1" as="geometry" />
        </mxCell>
        <mxCell id="m_yNfLJ8vxOP8ycgbfov-18" value="客户小程序登录注册，并完善个人信息（与系统录入一致判断）" style="whiteSpace=wrap;html=1;rounded=1;" parent="1" vertex="1">
          <mxGeometry x="900" y="570" width="120" height="60" as="geometry" />
        </mxCell>
        <mxCell id="m_yNfLJ8vxOP8ycgbfov-23" value="" style="edgeStyle=orthogonalEdgeStyle;rounded=0;orthogonalLoop=1;jettySize=auto;html=1;" parent="1" source="m_yNfLJ8vxOP8ycgbfov-20" target="m_yNfLJ8vxOP8ycgbfov-22" edge="1">
          <mxGeometry relative="1" as="geometry" />
        </mxCell>
        <mxCell id="m_yNfLJ8vxOP8ycgbfov-20" value="客户查看/设置密码，&lt;br&gt;开门测试" style="whiteSpace=wrap;html=1;rounded=1;" parent="1" vertex="1">
          <mxGeometry x="900" y="710" width="120" height="60" as="geometry" />
        </mxCell>
        <mxCell id="m_yNfLJ8vxOP8ycgbfov-25" value="" style="edgeStyle=orthogonalEdgeStyle;rounded=0;orthogonalLoop=1;jettySize=auto;html=1;" parent="1" source="m_yNfLJ8vxOP8ycgbfov-22" target="m_yNfLJ8vxOP8ycgbfov-24" edge="1">
          <mxGeometry relative="1" as="geometry" />
        </mxCell>
        <mxCell id="m_yNfLJ8vxOP8ycgbfov-22" value="管理员回收密码" style="whiteSpace=wrap;html=1;rounded=1;" parent="1" vertex="1">
          <mxGeometry x="700" y="710" width="120" height="60" as="geometry" />
        </mxCell>
        <mxCell id="tVU8ptAz91BLotwGd2Oe-2" value="" style="edgeStyle=orthogonalEdgeStyle;rounded=0;orthogonalLoop=1;jettySize=auto;html=1;" edge="1" parent="1" source="m_yNfLJ8vxOP8ycgbfov-24" target="tVU8ptAz91BLotwGd2Oe-1">
          <mxGeometry relative="1" as="geometry" />
        </mxCell>
        <mxCell id="m_yNfLJ8vxOP8ycgbfov-24" value="查询水电费、在线缴费" style="whiteSpace=wrap;html=1;rounded=1;" parent="1" vertex="1">
          <mxGeometry x="500" y="710" width="120" height="60" as="geometry" />
        </mxCell>
        <mxCell id="tVU8ptAz91BLotwGd2Oe-4" value="" style="edgeStyle=orthogonalEdgeStyle;rounded=0;orthogonalLoop=1;jettySize=auto;html=1;" edge="1" parent="1" source="tVU8ptAz91BLotwGd2Oe-1" target="tVU8ptAz91BLotwGd2Oe-3">
          <mxGeometry relative="1" as="geometry" />
        </mxCell>
        <mxCell id="tVU8ptAz91BLotwGd2Oe-1" value="交租" style="whiteSpace=wrap;html=1;rounded=1;" vertex="1" parent="1">
          <mxGeometry x="300" y="710" width="120" height="60" as="geometry" />
        </mxCell>
        <mxCell id="tVU8ptAz91BLotwGd2Oe-6" value="" style="edgeStyle=orthogonalEdgeStyle;rounded=0;orthogonalLoop=1;jettySize=auto;html=1;" edge="1" parent="1" source="tVU8ptAz91BLotwGd2Oe-3" target="tVU8ptAz91BLotwGd2Oe-5">
          <mxGeometry relative="1" as="geometry" />
        </mxCell>
        <mxCell id="tVU8ptAz91BLotwGd2Oe-3" value="包月车位" style="whiteSpace=wrap;html=1;rounded=1;" vertex="1" parent="1">
          <mxGeometry x="100" y="710" width="120" height="60" as="geometry" />
        </mxCell>
        <mxCell id="tVU8ptAz91BLotwGd2Oe-5" value="" style="whiteSpace=wrap;html=1;rounded=1;" vertex="1" parent="1">
          <mxGeometry x="100" y="850" width="120" height="60" as="geometry" />
        </mxCell>
      </root>
    </mxGraphModel>
  </diagram>
</mxfile>
